<mxfile host="app.diagrams.net" modified="2021-10-18T07:03:09.086Z" agent="5.0 (Macintosh; Intel Mac OS X 10_15_7) AppleWebKit/537.36 (KHTML, like Gecko) Chrome/90.0.4430.212 Safari/537.36" etag="vOuTg96uymQm38AG5DPs" version="15.5.4" type="github">
  <diagram id="ikd78xkqicjlQZIbzJCH" name="Page-1">
    <mxGraphModel dx="2066" dy="1044" grid="1" gridSize="10" guides="1" tooltips="1" connect="1" arrows="1" fold="1" page="1" pageScale="1" pageWidth="827" pageHeight="1169" math="0" shadow="0">
      <root>
        <mxCell id="0" />
        <mxCell id="1" parent="0" />
        <mxCell id="hHFcQG6JQL_hOBKi7MWc-2" value="" style="whiteSpace=wrap;html=1;fillColor=#FFFFCC;" parent="1" vertex="1">
          <mxGeometry x="30" y="210" width="750" height="350" as="geometry" />
        </mxCell>
        <mxCell id="hHFcQG6JQL_hOBKi7MWc-3" value="基础中间件" style="rounded=1;whiteSpace=wrap;html=1;fillColor=#6d8764;fontColor=#ffffff;strokeColor=#3A5431;" parent="1" vertex="1">
          <mxGeometry x="470" y="365" width="120" height="60" as="geometry" />
        </mxCell>
        <mxCell id="hHFcQG6JQL_hOBKi7MWc-4" value="灰度引流能力" style="rounded=1;whiteSpace=wrap;html=1;fillColor=#b0e3e6;strokeColor=#0e8088;" parent="1" vertex="1">
          <mxGeometry x="620" y="365" width="120" height="60" as="geometry" />
        </mxCell>
        <mxCell id="hHFcQG6JQL_hOBKi7MWc-5" value="限流能力" style="rounded=1;whiteSpace=wrap;html=1;fillColor=#e1d5e7;strokeColor=#9673a6;" parent="1" vertex="1">
          <mxGeometry x="620" y="270" width="120" height="60" as="geometry" />
        </mxCell>
        <mxCell id="hHFcQG6JQL_hOBKi7MWc-7" value="日志" style="rounded=1;whiteSpace=wrap;html=1;fillColor=#fff2cc;strokeColor=#d6b656;" parent="1" vertex="1">
          <mxGeometry x="470" y="270" width="120" height="60" as="geometry" />
        </mxCell>
        <mxCell id="hHFcQG6JQL_hOBKi7MWc-8" value="核心能力(运营基础能力)" style="rounded=1;whiteSpace=wrap;html=1;fillColor=#d5e8d4;strokeColor=#82b366;" parent="1" vertex="1">
          <mxGeometry x="70" y="250" width="210" height="100" as="geometry" />
        </mxCell>
        <mxCell id="hHFcQG6JQL_hOBKi7MWc-9" value="业务支持" style="rounded=1;whiteSpace=wrap;html=1;fillColor=#dae8fc;strokeColor=#6c8ebf;" parent="1" vertex="1">
          <mxGeometry x="70" y="410" width="210" height="110" as="geometry" />
        </mxCell>
        <mxCell id="4H9q-aJYzt173GeQCq5y-1" value="&lt;span&gt;DRM&lt;/span&gt;" style="rounded=1;whiteSpace=wrap;html=1;fillColor=#bac8d3;strokeColor=#23445d;" vertex="1" parent="1">
          <mxGeometry x="470" y="460" width="120" height="60" as="geometry" />
        </mxCell>
        <mxCell id="4H9q-aJYzt173GeQCq5y-2" value="缓存" style="rounded=1;whiteSpace=wrap;html=1;fillColor=#e3c800;strokeColor=#B09500;fontColor=#000000;" vertex="1" parent="1">
          <mxGeometry x="620" y="460" width="120" height="60" as="geometry" />
        </mxCell>
        <mxCell id="4H9q-aJYzt173GeQCq5y-3" value="&lt;font style=&quot;font-size: 18px&quot; color=&quot;#ffb570&quot;&gt;bkpromoweb&lt;/font&gt;" style="text;html=1;align=center;verticalAlign=middle;resizable=0;points=[];autosize=1;strokeColor=none;fillColor=none;" vertex="1" parent="1">
          <mxGeometry x="310" y="365" width="120" height="20" as="geometry" />
        </mxCell>
      </root>
    </mxGraphModel>
  </diagram>
</mxfile>
